<mxfile host="Electron" modified="2023-11-19T12:38:23.289Z" agent="Mozilla/5.0 (Windows NT 10.0; Win64; x64) AppleWebKit/537.36 (KHTML, like Gecko) draw.io/22.1.2 Chrome/114.0.5735.289 Electron/25.9.4 Safari/537.36" etag="seKf1pR6QkVrB-Kc66e4" version="22.1.2" type="device">
  <diagram name="Page-1" id="e7e014a7-5840-1c2e-5031-d8a46d1fe8dd">
    <mxGraphModel dx="2603" dy="836" grid="1" gridSize="10" guides="1" tooltips="1" connect="1" arrows="1" fold="1" page="1" pageScale="1" pageWidth="1169" pageHeight="826" background="none" math="0" shadow="0">
      <root>
        <mxCell id="0" />
        <mxCell id="1" parent="0" />
        <mxCell id="2" value="Машина 1" style="swimlane;whiteSpace=wrap;startSize=23;fontSize=18;" parent="1" vertex="1">
          <mxGeometry x="160" y="128" width="280" height="722" as="geometry" />
        </mxCell>
        <mxCell id="6" value="Да" style="edgeStyle=elbowEdgeStyle;elbow=horizontal;verticalAlign=bottom;endArrow=open;endSize=8;strokeColor=#3700CC;endFill=1;rounded=0;entryX=0.5;entryY=0;entryDx=0;entryDy=0;exitX=0.5;exitY=1;exitDx=0;exitDy=0;fontSize=14;fillColor=#6a00ff;" parent="2" source="OUGldvfa_Tr5QnA9_0u3-60" target="7" edge="1">
          <mxGeometry as="geometry">
            <mxPoint x="135" y="172" as="targetPoint" />
            <mxPoint x="140" y="142" as="sourcePoint" />
          </mxGeometry>
        </mxCell>
        <mxCell id="7" value="Получить данные&#xa;репозитория" style="rounded=1;fontSize=14;" parent="2" vertex="1">
          <mxGeometry x="80" y="190" width="120" height="50" as="geometry" />
        </mxCell>
        <mxCell id="9" value="" style="endArrow=open;strokeColor=#3700CC;endFill=1;rounded=0;entryX=0.5;entryY=0;entryDx=0;entryDy=0;exitX=0.5;exitY=1;exitDx=0;exitDy=0;fontSize=14;fillColor=#6a00ff;" parent="2" source="7" target="OUGldvfa_Tr5QnA9_0u3-41" edge="1">
          <mxGeometry relative="1" as="geometry">
            <mxPoint x="140.5" y="224" as="sourcePoint" />
            <mxPoint x="140" y="264" as="targetPoint" />
          </mxGeometry>
        </mxCell>
        <mxCell id="10" value="Склонировать&#xa;репозиторий" style="rounded=1;fontSize=14;" parent="2" vertex="1">
          <mxGeometry x="85" y="374" width="110" height="50" as="geometry" />
        </mxCell>
        <mxCell id="11" value="" style="endArrow=open;strokeColor=#3700CC;endFill=1;rounded=0;exitX=0.5;exitY=1;exitDx=0;exitDy=0;fontSize=14;fillColor=#6a00ff;" parent="2" source="OUGldvfa_Tr5QnA9_0u3-41" target="10" edge="1">
          <mxGeometry relative="1" as="geometry">
            <mxPoint x="140" y="314" as="sourcePoint" />
          </mxGeometry>
        </mxCell>
        <mxCell id="OUGldvfa_Tr5QnA9_0u3-44" value="Нет" style="edgeLabel;html=1;align=center;verticalAlign=middle;resizable=0;points=[];fontSize=14;" parent="11" vertex="1" connectable="0">
          <mxGeometry x="-0.12" relative="1" as="geometry">
            <mxPoint as="offset" />
          </mxGeometry>
        </mxCell>
        <mxCell id="OUGldvfa_Tr5QnA9_0u3-41" value="Репозиторий есть в&#xa;локальном бэкапе" style="rhombus;fillColor=#ffffc0;strokeColor=#000000;fontSize=14;" parent="2" vertex="1">
          <mxGeometry x="47.5" y="258" width="185" height="80" as="geometry" />
        </mxCell>
        <mxCell id="OUGldvfa_Tr5QnA9_0u3-42" value="" style="endArrow=open;strokeColor=#3700CC;endFill=1;rounded=0;exitX=1;exitY=0.5;exitDx=0;exitDy=0;entryX=1;entryY=0.5;entryDx=0;entryDy=0;fontSize=14;fillColor=#6a00ff;" parent="2" source="OUGldvfa_Tr5QnA9_0u3-41" target="7" edge="1">
          <mxGeometry relative="1" as="geometry">
            <mxPoint x="150" y="322" as="sourcePoint" />
            <mxPoint x="150" y="397" as="targetPoint" />
            <Array as="points">
              <mxPoint x="232.5" y="215" />
            </Array>
          </mxGeometry>
        </mxCell>
        <mxCell id="OUGldvfa_Tr5QnA9_0u3-43" value="Да" style="edgeLabel;html=1;align=center;verticalAlign=middle;resizable=0;points=[];fontSize=14;" parent="OUGldvfa_Tr5QnA9_0u3-42" vertex="1" connectable="0">
          <mxGeometry x="-0.0661" y="1" relative="1" as="geometry">
            <mxPoint as="offset" />
          </mxGeometry>
        </mxCell>
        <mxCell id="OUGldvfa_Tr5QnA9_0u3-45" value="Анализ содержимого&#xa;репозитория&#xa;(cloc)" style="rounded=1;fontSize=14;" parent="2" vertex="1">
          <mxGeometry x="60" y="450" width="160" height="50" as="geometry" />
        </mxCell>
        <mxCell id="20" value="" style="endArrow=open;strokeColor=#3700CC;endFill=1;rounded=0;exitX=0.5;exitY=1;exitDx=0;exitDy=0;entryX=0.5;entryY=0;entryDx=0;entryDy=0;fontSize=14;fillColor=#6a00ff;" parent="2" source="10" target="OUGldvfa_Tr5QnA9_0u3-45" edge="1">
          <mxGeometry relative="1" as="geometry" />
        </mxCell>
        <mxCell id="OUGldvfa_Tr5QnA9_0u3-60" value="Можно ли получить&#xa;новые репозитории" style="rhombus;fillColor=#ffffc0;strokeColor=#000000;fontSize=14;" parent="2" vertex="1">
          <mxGeometry x="42.5" y="62" width="195" height="86" as="geometry" />
        </mxCell>
        <mxCell id="OUGldvfa_Tr5QnA9_0u3-64" value="Запись в локальный&#xa;бэкап" style="rounded=1;fontSize=14;" parent="2" vertex="1">
          <mxGeometry x="72.5" y="520" width="135" height="50" as="geometry" />
        </mxCell>
        <mxCell id="OUGldvfa_Tr5QnA9_0u3-65" value="" style="endArrow=open;strokeColor=#3700CC;endFill=1;rounded=0;exitX=0.5;exitY=1;exitDx=0;exitDy=0;entryX=0.5;entryY=0;entryDx=0;entryDy=0;fontSize=14;fillColor=#6a00ff;" parent="2" source="OUGldvfa_Tr5QnA9_0u3-45" target="OUGldvfa_Tr5QnA9_0u3-64" edge="1">
          <mxGeometry relative="1" as="geometry">
            <mxPoint x="150" y="414" as="sourcePoint" />
            <mxPoint x="150" y="444" as="targetPoint" />
          </mxGeometry>
        </mxCell>
        <mxCell id="OUGldvfa_Tr5QnA9_0u3-69" value="" style="endArrow=open;strokeColor=#3700CC;endFill=1;rounded=0;exitX=1;exitY=0.5;exitDx=0;exitDy=0;entryX=1;entryY=0.5;entryDx=0;entryDy=0;fontSize=14;fillColor=#6a00ff;" parent="2" source="OUGldvfa_Tr5QnA9_0u3-64" target="OUGldvfa_Tr5QnA9_0u3-60" edge="1">
          <mxGeometry relative="1" as="geometry">
            <mxPoint x="150" y="494" as="sourcePoint" />
            <mxPoint x="150" y="530" as="targetPoint" />
            <Array as="points">
              <mxPoint x="255" y="545" />
              <mxPoint x="255" y="105" />
            </Array>
          </mxGeometry>
        </mxCell>
        <mxCell id="OUGldvfa_Tr5QnA9_0u3-67" value="" style="endArrow=open;strokeColor=#3700CC;endFill=1;rounded=0;exitX=0;exitY=0.5;exitDx=0;exitDy=0;entryX=0;entryY=0.852;entryDx=0;entryDy=0;entryPerimeter=0;fontSize=14;fillColor=#6a00ff;" parent="2" source="OUGldvfa_Tr5QnA9_0u3-60" edge="1">
          <mxGeometry relative="1" as="geometry">
            <mxPoint x="154.5" y="506" as="sourcePoint" />
            <mxPoint x="141.05999999999995" y="612" as="targetPoint" />
            <Array as="points">
              <mxPoint x="43" y="592" />
              <mxPoint x="141" y="592" />
            </Array>
          </mxGeometry>
        </mxCell>
        <mxCell id="OUGldvfa_Tr5QnA9_0u3-68" value="Нет" style="edgeLabel;html=1;align=center;verticalAlign=middle;resizable=0;points=[];fontSize=14;" parent="OUGldvfa_Tr5QnA9_0u3-67" vertex="1" connectable="0">
          <mxGeometry x="-0.2382" relative="1" as="geometry">
            <mxPoint as="offset" />
          </mxGeometry>
        </mxCell>
        <mxCell id="3" value="Машина 2" style="swimlane;whiteSpace=wrap;fontSize=18;" parent="1" vertex="1">
          <mxGeometry x="440" y="128" width="284.5" height="722" as="geometry" />
        </mxCell>
        <mxCell id="OUGldvfa_Tr5QnA9_0u3-66" value="" style="html=1;points=[];perimeter=orthogonalPerimeter;fillColor=strokeColor;direction=south;fontSize=14;" parent="3" vertex="1">
          <mxGeometry x="-199.25" y="612" width="407.5" height="5" as="geometry" />
        </mxCell>
        <mxCell id="OUGldvfa_Tr5QnA9_0u3-72" value="Получить данные&#xa;репозитория" style="rounded=1;fontSize=14;" parent="3" vertex="1">
          <mxGeometry x="81.75" y="190" width="120" height="50" as="geometry" />
        </mxCell>
        <mxCell id="OUGldvfa_Tr5QnA9_0u3-73" value="" style="endArrow=open;strokeColor=#3700CC;endFill=1;rounded=0;entryX=0.5;entryY=0;entryDx=0;entryDy=0;exitX=0.5;exitY=1;exitDx=0;exitDy=0;fontSize=14;fillColor=#6a00ff;" parent="3" source="OUGldvfa_Tr5QnA9_0u3-72" target="OUGldvfa_Tr5QnA9_0u3-77" edge="1">
          <mxGeometry relative="1" as="geometry">
            <mxPoint x="142.25" y="224" as="sourcePoint" />
            <mxPoint x="141.75" y="264" as="targetPoint" />
          </mxGeometry>
        </mxCell>
        <mxCell id="OUGldvfa_Tr5QnA9_0u3-74" value="Склонировать&#xa;репозиторий" style="rounded=1;fontSize=14;" parent="3" vertex="1">
          <mxGeometry x="86.75" y="380" width="110" height="50" as="geometry" />
        </mxCell>
        <mxCell id="OUGldvfa_Tr5QnA9_0u3-75" value="" style="endArrow=open;strokeColor=#3700CC;endFill=1;rounded=0;exitX=0.5;exitY=1;exitDx=0;exitDy=0;fontSize=14;fillColor=#6a00ff;" parent="3" source="OUGldvfa_Tr5QnA9_0u3-77" target="OUGldvfa_Tr5QnA9_0u3-74" edge="1">
          <mxGeometry relative="1" as="geometry">
            <mxPoint x="141.75" y="314" as="sourcePoint" />
          </mxGeometry>
        </mxCell>
        <mxCell id="OUGldvfa_Tr5QnA9_0u3-76" value="Нет" style="edgeLabel;html=1;align=center;verticalAlign=middle;resizable=0;points=[];fontSize=14;" parent="OUGldvfa_Tr5QnA9_0u3-75" vertex="1" connectable="0">
          <mxGeometry x="-0.12" relative="1" as="geometry">
            <mxPoint as="offset" />
          </mxGeometry>
        </mxCell>
        <mxCell id="OUGldvfa_Tr5QnA9_0u3-77" value="Репозиторий есть в&#xa;локальном бэкапе" style="rhombus;fillColor=#ffffc0;strokeColor=#000000;fontSize=14;" parent="3" vertex="1">
          <mxGeometry x="49.25" y="260" width="185" height="88" as="geometry" />
        </mxCell>
        <mxCell id="OUGldvfa_Tr5QnA9_0u3-78" value="" style="endArrow=open;strokeColor=#3700CC;endFill=1;rounded=0;exitX=1;exitY=0.5;exitDx=0;exitDy=0;entryX=1;entryY=0.5;entryDx=0;entryDy=0;fontSize=14;fillColor=#6a00ff;" parent="3" source="OUGldvfa_Tr5QnA9_0u3-77" target="OUGldvfa_Tr5QnA9_0u3-72" edge="1">
          <mxGeometry relative="1" as="geometry">
            <mxPoint x="151.75" y="322" as="sourcePoint" />
            <mxPoint x="151.75" y="397" as="targetPoint" />
            <Array as="points">
              <mxPoint x="234" y="215" />
            </Array>
          </mxGeometry>
        </mxCell>
        <mxCell id="OUGldvfa_Tr5QnA9_0u3-79" value="Да" style="edgeLabel;html=1;align=center;verticalAlign=middle;resizable=0;points=[];fontSize=14;" parent="OUGldvfa_Tr5QnA9_0u3-78" vertex="1" connectable="0">
          <mxGeometry x="-0.0661" y="1" relative="1" as="geometry">
            <mxPoint as="offset" />
          </mxGeometry>
        </mxCell>
        <mxCell id="OUGldvfa_Tr5QnA9_0u3-80" value="Анализ содержимого&#xa;репозитория&#xa;(cloc)" style="rounded=1;fontSize=14;" parent="3" vertex="1">
          <mxGeometry x="62.25" y="450" width="160" height="50" as="geometry" />
        </mxCell>
        <mxCell id="OUGldvfa_Tr5QnA9_0u3-81" value="" style="endArrow=open;strokeColor=#3700CC;endFill=1;rounded=0;exitX=0.5;exitY=1;exitDx=0;exitDy=0;entryX=0.5;entryY=0;entryDx=0;entryDy=0;fontSize=14;fillColor=#6a00ff;" parent="3" source="OUGldvfa_Tr5QnA9_0u3-74" target="OUGldvfa_Tr5QnA9_0u3-80" edge="1">
          <mxGeometry relative="1" as="geometry" />
        </mxCell>
        <mxCell id="OUGldvfa_Tr5QnA9_0u3-82" value="Можно ли получить&#xa;новые репозитории" style="rhombus;fillColor=#ffffc0;strokeColor=#000000;fontSize=14;" parent="3" vertex="1">
          <mxGeometry x="40" y="62" width="200" height="86" as="geometry" />
        </mxCell>
        <mxCell id="OUGldvfa_Tr5QnA9_0u3-71" value="Да" style="edgeStyle=elbowEdgeStyle;elbow=horizontal;verticalAlign=bottom;endArrow=open;endSize=8;strokeColor=#3700CC;endFill=1;rounded=0;entryX=0.5;entryY=0;entryDx=0;entryDy=0;exitX=0.5;exitY=1;exitDx=0;exitDy=0;fontSize=14;fillColor=#6a00ff;" parent="3" source="OUGldvfa_Tr5QnA9_0u3-82" target="OUGldvfa_Tr5QnA9_0u3-72" edge="1">
          <mxGeometry as="geometry">
            <mxPoint x="136.75" y="172" as="targetPoint" />
            <mxPoint x="141.75" y="142" as="sourcePoint" />
          </mxGeometry>
        </mxCell>
        <mxCell id="OUGldvfa_Tr5QnA9_0u3-84" value="Запись в локальный&#xa;бэкап" style="rounded=1;fontSize=14;" parent="3" vertex="1">
          <mxGeometry x="74.25" y="520" width="135" height="50" as="geometry" />
        </mxCell>
        <mxCell id="OUGldvfa_Tr5QnA9_0u3-85" value="" style="endArrow=open;strokeColor=#3700CC;endFill=1;rounded=0;exitX=0.5;exitY=1;exitDx=0;exitDy=0;entryX=0.5;entryY=0;entryDx=0;entryDy=0;fontSize=14;fillColor=#6a00ff;" parent="3" source="OUGldvfa_Tr5QnA9_0u3-80" target="OUGldvfa_Tr5QnA9_0u3-84" edge="1">
          <mxGeometry relative="1" as="geometry">
            <mxPoint x="151.75" y="414" as="sourcePoint" />
            <mxPoint x="151.75" y="444" as="targetPoint" />
          </mxGeometry>
        </mxCell>
        <mxCell id="OUGldvfa_Tr5QnA9_0u3-86" value="" style="endArrow=open;strokeColor=#3700CC;endFill=1;rounded=0;exitX=1;exitY=0.5;exitDx=0;exitDy=0;entryX=1;entryY=0.5;entryDx=0;entryDy=0;fontSize=14;fillColor=#6a00ff;" parent="3" source="OUGldvfa_Tr5QnA9_0u3-84" target="OUGldvfa_Tr5QnA9_0u3-82" edge="1">
          <mxGeometry relative="1" as="geometry">
            <mxPoint x="151.75" y="494" as="sourcePoint" />
            <mxPoint x="151.75" y="530" as="targetPoint" />
            <Array as="points">
              <mxPoint x="260" y="545" />
              <mxPoint x="260" y="105" />
            </Array>
          </mxGeometry>
        </mxCell>
        <mxCell id="OUGldvfa_Tr5QnA9_0u3-87" value="" style="endArrow=open;strokeColor=#3700CC;endFill=1;rounded=0;exitX=0;exitY=0.5;exitDx=0;exitDy=0;fontSize=14;entryX=0;entryY=0.175;entryDx=0;entryDy=0;entryPerimeter=0;fillColor=#6a00ff;" parent="3" source="OUGldvfa_Tr5QnA9_0u3-82" target="OUGldvfa_Tr5QnA9_0u3-66" edge="1">
          <mxGeometry relative="1" as="geometry">
            <mxPoint x="151.75" y="506" as="sourcePoint" />
            <mxPoint x="137" y="602" as="targetPoint" />
            <Array as="points">
              <mxPoint x="40" y="592" />
              <mxPoint x="137" y="592" />
            </Array>
          </mxGeometry>
        </mxCell>
        <mxCell id="OUGldvfa_Tr5QnA9_0u3-88" value="Нет" style="edgeLabel;html=1;align=center;verticalAlign=middle;resizable=0;points=[];fontSize=14;" parent="OUGldvfa_Tr5QnA9_0u3-87" vertex="1" connectable="0">
          <mxGeometry x="-0.2382" relative="1" as="geometry">
            <mxPoint as="offset" />
          </mxGeometry>
        </mxCell>
        <mxCell id="OUGldvfa_Tr5QnA9_0u3-46" value="Пользователь" style="swimlane;whiteSpace=wrap;startSize=23;fontSize=18;" parent="1" vertex="1">
          <mxGeometry x="-60" y="128" width="220" height="722" as="geometry" />
        </mxCell>
        <mxCell id="OUGldvfa_Tr5QnA9_0u3-47" value="" style="ellipse;shape=startState;fillColor=#000000;strokeColor=#000000;fontSize=14;" parent="OUGldvfa_Tr5QnA9_0u3-46" vertex="1">
          <mxGeometry x="95" y="32" width="30" height="30" as="geometry" />
        </mxCell>
        <mxCell id="OUGldvfa_Tr5QnA9_0u3-96" value="" style="edgeStyle=orthogonalEdgeStyle;rounded=0;orthogonalLoop=1;jettySize=auto;html=1;fontSize=14;fillColor=#6a00ff;strokeColor=#3700CC;" parent="OUGldvfa_Tr5QnA9_0u3-46" source="OUGldvfa_Tr5QnA9_0u3-89" target="OUGldvfa_Tr5QnA9_0u3-95" edge="1">
          <mxGeometry relative="1" as="geometry" />
        </mxCell>
        <mxCell id="OUGldvfa_Tr5QnA9_0u3-89" value="Объединить бэкапы" style="rounded=1;fontSize=14;" parent="OUGldvfa_Tr5QnA9_0u3-46" vertex="1">
          <mxGeometry x="40" y="607" width="160" height="50" as="geometry" />
        </mxCell>
        <mxCell id="OUGldvfa_Tr5QnA9_0u3-95" value="" style="shape=sumEllipse;perimeter=ellipsePerimeter;html=1;backgroundOutline=1;fontSize=14;" parent="OUGldvfa_Tr5QnA9_0u3-46" vertex="1">
          <mxGeometry x="105" y="682" width="30" height="30" as="geometry" />
        </mxCell>
        <mxCell id="MAo4PXlZAi8EgYf9fepp-20" value="" style="html=1;points=[];perimeter=orthogonalPerimeter;fillColor=strokeColor;direction=south;fontSize=14;" vertex="1" parent="OUGldvfa_Tr5QnA9_0u3-46">
          <mxGeometry x="50" y="82" width="117.5" height="5" as="geometry" />
        </mxCell>
        <mxCell id="MAo4PXlZAi8EgYf9fepp-21" value="" style="endArrow=open;strokeColor=#3700CC;endFill=1;rounded=0;fontSize=14;exitX=0.5;exitY=1;exitDx=0;exitDy=0;fillColor=#6a00ff;" edge="1" parent="OUGldvfa_Tr5QnA9_0u3-46" source="OUGldvfa_Tr5QnA9_0u3-47">
          <mxGeometry relative="1" as="geometry">
            <mxPoint x="440" y="62" as="sourcePoint" />
            <mxPoint x="110" y="82" as="targetPoint" />
          </mxGeometry>
        </mxCell>
        <mxCell id="MAo4PXlZAi8EgYf9fepp-22" value="Задать запросы&#xa;к GitHub API&#xa;для машины 1" style="rounded=1;fontSize=14;" vertex="1" parent="OUGldvfa_Tr5QnA9_0u3-46">
          <mxGeometry x="15" y="182" width="110" height="50" as="geometry" />
        </mxCell>
        <mxCell id="MAo4PXlZAi8EgYf9fepp-23" value="Задать запросы&#xa;к GitHub API&#xa;для машины 2" style="rounded=1;fontSize=14;" vertex="1" parent="OUGldvfa_Tr5QnA9_0u3-46">
          <mxGeometry x="95" y="112" width="110" height="50" as="geometry" />
        </mxCell>
        <mxCell id="MAo4PXlZAi8EgYf9fepp-24" value="" style="endArrow=open;strokeColor=#3700CC;endFill=1;rounded=0;fontSize=14;entryX=0.5;entryY=0;entryDx=0;entryDy=0;fillColor=#6a00ff;" edge="1" parent="OUGldvfa_Tr5QnA9_0u3-46" target="MAo4PXlZAi8EgYf9fepp-22">
          <mxGeometry relative="1" as="geometry">
            <mxPoint x="70" y="82" as="sourcePoint" />
            <mxPoint x="162.5" y="92" as="targetPoint" />
          </mxGeometry>
        </mxCell>
        <mxCell id="MAo4PXlZAi8EgYf9fepp-25" value="" style="endArrow=open;strokeColor=#3700CC;endFill=1;rounded=0;fontSize=14;entryX=0.5;entryY=0;entryDx=0;entryDy=0;fillColor=#6a00ff;" edge="1" parent="OUGldvfa_Tr5QnA9_0u3-46" target="MAo4PXlZAi8EgYf9fepp-23">
          <mxGeometry relative="1" as="geometry">
            <mxPoint x="150" y="82" as="sourcePoint" />
            <mxPoint x="-52.5" y="122" as="targetPoint" />
          </mxGeometry>
        </mxCell>
        <mxCell id="OUGldvfa_Tr5QnA9_0u3-83" value="" style="endArrow=open;strokeColor=#3700CC;endFill=1;rounded=0;entryX=0.5;entryY=0;entryDx=0;entryDy=0;fontSize=14;fillColor=#6a00ff;" parent="1" target="OUGldvfa_Tr5QnA9_0u3-82" edge="1">
          <mxGeometry relative="1" as="geometry">
            <mxPoint x="120" y="240" as="sourcePoint" />
            <mxPoint x="591.75" y="584" as="targetPoint" />
            <Array as="points">
              <mxPoint x="120" y="160" />
              <mxPoint x="580" y="160" />
            </Array>
          </mxGeometry>
        </mxCell>
        <mxCell id="OUGldvfa_Tr5QnA9_0u3-90" value="" style="endArrow=open;strokeColor=#3700CC;endFill=1;rounded=0;exitX=0.2;exitY=0.585;exitDx=0;exitDy=0;entryX=1;entryY=0.5;entryDx=0;entryDy=0;exitPerimeter=0;fontSize=14;fillColor=#6a00ff;" parent="1" source="OUGldvfa_Tr5QnA9_0u3-66" target="OUGldvfa_Tr5QnA9_0u3-89" edge="1">
          <mxGeometry relative="1" as="geometry">
            <mxPoint x="-113" y="745" as="sourcePoint" />
            <mxPoint x="212" y="670" as="targetPoint" />
            <Array as="points">
              <mxPoint x="410" y="760" />
            </Array>
          </mxGeometry>
        </mxCell>
        <mxCell id="OUGldvfa_Tr5QnA9_0u3-63" value="" style="endArrow=open;strokeColor=#3700CC;endFill=1;rounded=0;entryX=0.5;entryY=0;entryDx=0;entryDy=0;fontSize=14;exitX=1;exitY=0.5;exitDx=0;exitDy=0;fillColor=#6a00ff;" parent="1" target="OUGldvfa_Tr5QnA9_0u3-60" edge="1" source="MAo4PXlZAi8EgYf9fepp-22">
          <mxGeometry relative="1" as="geometry">
            <mxPoint x="300" y="180" as="sourcePoint" />
            <mxPoint x="310" y="584" as="targetPoint" />
            <Array as="points">
              <mxPoint x="180" y="335" />
              <mxPoint x="180" y="170" />
              <mxPoint x="300" y="170" />
            </Array>
          </mxGeometry>
        </mxCell>
      </root>
    </mxGraphModel>
  </diagram>
</mxfile>
